<svg xmlns="http://www.w3.org/2000/svg" width="20" height="21" viewBox="0 0 20 21" fill="none">
<path opacity="0.8" d="M10 0.984375C8.68678 0.984375 7.38642 1.24303 6.17317 1.74558C4.95991 2.24813 3.85752 2.98472 2.92893 3.91331C1.05357 5.78867 0 8.33221 0 10.9844C0 15.4044 2.87 19.1544 6.84 20.4844C7.34 20.5644 7.5 20.2544 7.5 19.9844V18.2944C4.73 18.8944 4.14 16.9544 4.14 16.9544C3.68 15.7944 3.03 15.4844 3.03 15.4844C2.12 14.8644 3.1 14.8844 3.1 14.8844C4.1 14.9544 4.63 15.9144 4.63 15.9144C5.5 17.4344 6.97 16.9844 7.54 16.7444C7.63 16.0944 7.89 15.6544 8.17 15.4044C5.95 15.1544 3.62 14.2944 3.62 10.4844C3.62 9.37438 4 8.48438 4.65 7.77437C4.55 7.52437 4.2 6.48438 4.75 5.13438C4.75 5.13438 5.59 4.86438 7.5 6.15438C8.29 5.93438 9.15 5.82438 10 5.82438C10.85 5.82438 11.71 5.93438 12.5 6.15438C14.41 4.86438 15.25 5.13438 15.25 5.13438C15.8 6.48438 15.45 7.52437 15.35 7.77437C16 8.48438 16.38 9.37438 16.38 10.4844C16.38 14.3044 14.04 15.1444 11.81 15.3944C12.17 15.7044 12.5 16.3144 12.5 17.2444V19.9844C12.5 20.2544 12.66 20.5744 13.17 20.4844C17.14 19.1444 20 15.4044 20 10.9844C20 9.67116 19.7413 8.3708 19.2388 7.15754C18.7362 5.94428 17.9997 4.84189 17.0711 3.91331C16.1425 2.98472 15.0401 2.24813 13.8268 1.74558C12.6136 1.24303 11.3132 0.984375 10 0.984375Z" fill="white"/>
</svg>
